<svg id="Layer_1" data-name="Layer 1" xmlns="http://www.w3.org/2000/svg" viewBox="0 0 1045.91 1414.88"><defs><style>.cls-1,.cls-2,.cls-3,.cls-4,.cls-5{fill:none;stroke-miterlimit:10;stroke-width:60px;}.cls-1{stroke:#efb4b4;}.cls-2{stroke:#ffd0a1;}.cls-3{stroke:#ffe7a4;}.cls-4{stroke:#a5f9d9;}.cls-5{stroke:#a4cbfb;}</style></defs><title>discover-family-history</title><path class="cls-1" d="M854.46,703.52a277.66,277.66,0,0,1-32.85-131.43c0-154,124.87-278.89,278.89-278.89S1379.4,418.06,1379.4,572.09a277.72,277.72,0,0,1-61.56,174.79" transform="translate(-363.49 -210.64)"/><path class="cls-1" d="M1100.51,851" transform="translate(-363.49 -210.64)"/><path class="cls-2" d="M809.79,964.74a277.22,277.22,0,0,1,27.16-65.16" transform="translate(-363.49 -210.64)"/><path class="cls-2" d="M799.93,1038.53" transform="translate(-363.49 -210.64)"/><path class="cls-2" d="M1262.21,1248.65a277.82,277.82,0,0,1-183.39,68.77q-10.7,0-21.2-.79" transform="translate(-363.49 -210.64)"/><path class="cls-2" d="M956.34,787.9a277.77,277.77,0,0,1,122.48-28.26c154,0,278.89,124.87,278.89,278.89a281.24,281.24,0,0,1-2.86,40.06" transform="translate(-363.49 -210.64)"/><path class="cls-3" d="M977.46,1038.53" transform="translate(-363.49 -210.64)"/><path class="cls-3" d="M425.34,1094.74a280.15,280.15,0,0,1-5.67-56.21c0-154,124.87-278.89,278.89-278.89,134.1,0,246.1,94.65,272.83,220.78" transform="translate(-363.49 -210.64)"/><path class="cls-3" d="M719.77,1316.63q-10.5.79-21.2,0.79a277.93,277.93,0,0,1-191.13-75.79" transform="translate(-363.49 -210.64)"/><path class="cls-4" d="M937.15,1076.34a277.6,277.6,0,0,1,141.67-38.61c154,0,278.89,124.87,278.89,278.89s-124.87,278.89-278.89,278.89a277.66,277.66,0,0,1-132.42-33.38" transform="translate(-363.49 -210.64)"/><path class="cls-4" d="M842.92,1465.48a279.19,279.19,0,0,1-6-287.8" transform="translate(-363.49 -210.64)"/><circle class="cls-5" cx="335.08" cy="1105.99" r="278.89"/><text x="-363.49" y="-210.64"/></svg>