<svg id="Layer_1" data-name="Layer 1" xmlns="http://www.w3.org/2000/svg" xmlns:xlink="http://www.w3.org/1999/xlink" viewBox="0 0 467.7 292.01"><defs><style>.cls-1,.cls-2,.cls-3,.cls-4,.cls-5,.cls-6,.cls-7,.cls-8,.cls-9{stroke-miterlimit:10;}.cls-1{stroke:url(#linear-gradient);}.cls-2,.cls-3,.cls-7,.cls-8,.cls-9{fill:none;}.cls-2,.cls-3,.cls-7,.cls-8{stroke-width:5px;}.cls-2{stroke:url(#linear-gradient-2);}.cls-3{stroke:url(#linear-gradient-3);}.cls-4{stroke:url(#linear-gradient-4);}.cls-5{stroke:url(#linear-gradient-5);}.cls-6{stroke:url(#linear-gradient-6);}.cls-7{stroke:url(#linear-gradient-7);}.cls-8{stroke:url(#linear-gradient-8);}.cls-9{stroke:#000;}</style><linearGradient id="linear-gradient" x1="269.36" y1="406.98" x2="552.05" y2="406.98" gradientUnits="userSpaceOnUse"><stop offset="0"/><stop offset="0.37" stop-color="#140606"/><stop offset="1" stop-color="#351111"/></linearGradient><linearGradient id="linear-gradient-2" x1="718.81" y1="489.35" x2="718.81" y2="489.35" xlink:href="#linear-gradient"/><linearGradient id="linear-gradient-3" x1="723.18" y1="493.84" x2="723.18" y2="493.84" xlink:href="#linear-gradient"/><linearGradient id="linear-gradient-4" x1="514.33" y1="321" x2="593.26" y2="321" xlink:href="#linear-gradient"/><linearGradient id="linear-gradient-5" x1="248.21" y1="456.73" x2="518.13" y2="456.73" xlink:href="#linear-gradient"/><linearGradient id="linear-gradient-6" x1="533.56" y1="365.11" x2="715.91" y2="365.11" xlink:href="#linear-gradient"/><linearGradient id="linear-gradient-7" x1="219.8" y1="404.64" x2="219.8" y2="404.64" xlink:href="#linear-gradient"/><linearGradient id="linear-gradient-8" x1="637.23" y1="533.67" x2="637.23" y2="533.67" xlink:href="#linear-gradient"/></defs><title>lukenis-monstr-logo</title><path class="cls-1" d="M550.47,488.19s-17.2-24.64-17.76-36.57c8.23-26.56,8-53.73-.58-60.45-8.23,26.56-21.81,42.48-30.36,35.76l-0.13-.51c12.07-39,10.48-79.44-3.56-90.47-12.07,39-33.2,61.53-47.24,50.5l0.18-.73c-2.07-43.89-16.25-78.83-31.7-78.1,2.07,43.89-8.77,80-24.23,80.73l0.06,0.29c-11-41.18-31.48-67.79-45.78-59.49,11,41.18,8.35,81.22-5.95,89.52l-0.15-.46c-12.46-23.74-28.41-35.77-35.66-26.9,12.46,23.74,21.45,52.26,14.21,61.13,0,0-3.56,4-13.08,8,0,0-42.22,7.32-38.67,8.93,1.27,0.57,34.61-2.88,41.54-3.23,14.12-.71,9.47-3.3,9.47-3.3l9.87-10.27c59.77-70,145.84-58.69,192.78,35.58,0,0,12.1,14-101.73,17.32-4.68.14,40.14,2.54,83.79-1.37C527.75,502.16,557.63,495.76,550.47,488.19Z" transform="translate(-248.21 -219)"/><path class="cls-2" d="M718.81,489.35" transform="translate(-248.21 -219)"/><path class="cls-3" d="M723.18,493.84" transform="translate(-248.21 -219)"/><path class="cls-4" d="M592.71,226.27c-6.67.31-71.79,41.75-2.87,196.22-15.92.75-29.69-17.51-30.79-40.81-3-15.19-19.2-24.79-36.33-21.46-3-15.19,7.09-28.61,24.21-31.94l0.11-.1c-0.28-15.47-14.62-27.74-32.06-27.43,6.33-23.44,15.19-32,28.84-27.7l0.34-.22c7.55-13.51,1.34-31.33-13.89-39.84,7.55-13.51,26-17.55,41.21-9l-0.11-.22C582.92,222.61,592.46,223.75,592.71,226.27Z" transform="translate(-248.21 -219)"/><path class="cls-5" d="M370,493.84c-29.86,0-38.31,10.91,55.44,7.75,83.93-2.8,92.07-13.37,92.07-13.37-41.93-83-124.85-109.7-192-25.34,7.48,4-14.88,6.63-14.74,6.67-72.86,5-105.28,17.65,37.78,15.23C413.09,484.87,454.26,491.42,370,493.84Z" transform="translate(-248.21 -219)"/><path class="cls-6" d="M715.31,496.43l-0.66-3.15C701.37,401.6,651,424.5,621,348.58L617.51,327c-0.71-15-2.74-29.85-4.48-66.81h0.08c24.58,35.88,41.92,45.39,71.51,40.5,9.21-2,14.39-7.55,13-16.9a2,2,0,0,1-.72-3.32c-2-7.23-7.53-16.37-17.33-27.49a4.79,4.79,0,1,1-6.49-7q-3.43-3.53-7.4-7.3c-14.84-21.74-47.32-25.29-72.63-8l-1.29,1.26c-41.35,33.27-32.52,96.16,2.81,189.87,1.68,35.61-15.22,65.9-25.92,66.41l-0.75.37s39.87,5.28-23.92,14.25c-46.49,7.25,85.16,7.67,85.16,7.67S718.77,511.94,715.31,496.43ZM690.26,279.86a2,2,0,1,1-1.93,2.12A2,2,0,0,1,690.26,279.86Zm-29.54-34.93a4.8,4.8,0,1,1-4.8,4.8A4.8,4.8,0,0,1,660.72,244.93Z" transform="translate(-248.21 -219)"/><path class="cls-7" d="M219.8,404.64" transform="translate(-248.21 -219)"/><path class="cls-8" d="M637.23,533.67" transform="translate(-248.21 -219)"/><path class="cls-9" d="M415.54,546.22" transform="translate(-248.21 -219)"/></svg>