<svg id="Layer_1" data-name="Layer 1" xmlns="http://www.w3.org/2000/svg" viewBox="0 0 727.47 885.19"><defs><style>.cls-1,.cls-10,.cls-4,.cls-9{fill:none;}.cls-1,.cls-5,.cls-8{stroke:#000;}.cls-1,.cls-10,.cls-4,.cls-5,.cls-6,.cls-7,.cls-8,.cls-9{stroke-miterlimit:10;}.cls-1{stroke-width:5px;}.cls-2,.cls-5,.cls-6,.cls-7{fill:#1e0707;}.cls-3,.cls-8{fill:#fff;}.cls-4{stroke:#fff;}.cls-4,.cls-6,.cls-9{stroke-width:3px;}.cls-10,.cls-6,.cls-7,.cls-9{stroke:#63ecf7;}.cls-7{stroke-width:2px;}.cls-10{stroke-width:7px;}</style></defs><title>lukenis-monstr-home-image</title><path d="M540.47,603.68c-4.32.2-17.2-23.14-17.76-35.07,8.23-26.56,8-53.73-.58-60.45-8.23,26.56-21.81,42.48-30.36,35.76l-0.13-.51c12.07-39,10.48-79.44-3.56-90.47-12.07,39-33.2,61.53-47.24,50.5l0.18-.73c-2.07-43.89-16.25-78.83-31.7-78.1,2.07,43.89-8.77,80-24.23,80.73l0.06,0.29c-11-41.18-31.48-67.79-45.78-59.49,11,41.18,8.35,81.22-5.95,89.52l-0.15-.46c-12.46-23.74-28.41-35.77-35.66-26.9,12.46,23.74,21.45,52.26,14.21,61.13,0,0-.45,4.45-13.08,8l12.33,2.4,9.87-10.27c59.77-70,145.84-59.69,192.78,34.58Z" transform="translate(-146.18 -93.16)"/><path class="cls-1" d="M813.18,610.84c-78.27,4.78,47.19-12.74-104.37-4.48" transform="translate(-146.18 -93.16)"/><path d="M582.71,343.27c-6.67.31-71.79,41.75-2.87,196.22-15.92.75-29.69-17.51-30.79-40.81-3-15.19-19.2-24.79-36.33-21.46-3-15.19,7.09-28.61,24.21-31.94l0.11-.1c-0.28-15.47-14.62-27.74-32.06-27.43,6.33-23.44,15.19-32,28.84-27.7l0.34-.22c7.55-13.51,1.34-31.33-13.89-39.84,7.55-13.51,26-17.55,41.21-9l-0.11-.22C572.92,339.61,582.46,340.75,582.71,343.27Z" transform="translate(-146.18 -93.16)"/><path class="cls-2" d="M419,603.48c-23.18,2.52-64.89,8.09,28.85,4.93,54.64-2.19,59.64-3.19,59.64-3.19-41.93-83-124.85-108.07-192-23.71,17,4.65-2.88,7-2.74,7-72.86,5-73.53,24.69,65.78,10.23C488.19,582.63,469.21,598,419,603.48Z" transform="translate(-146.18 -93.16)"/><path class="cls-2" d="M701.2,617.59c-15.7,2.74-86.44,4.95-86.44,4.95s-289,1.14-162-.5c211.62-12,105.12-16.48,105.12-16.48l0.75,0c10.71-.5,27.6-31.13,25.92-66.74-35.33-93.71-44.17-156.6-2.81-189.87l1.29-1.26c25.31-17.27,57.79-13.72,72.63,8,39.86,37.82,38.29,57.84,18.92,62-29.59,4.89-46.94-4.62-71.51-40.5H603c1.74,37,3.76,51.79,4.48,66.81L611,465.58c30,75.92,80.39,60,93.68,151.7Z" transform="translate(-146.18 -93.16)"/><circle class="cls-3" cx="504.54" cy="273.57" r="4.8"/><circle class="cls-3" cx="680.35" cy="398.89" r="2.02" transform="matrix(1, -0.05, 0.05, 1, -164.17, -60.74)"/><path d="M199,575.88c15,3.11,93.48,3.32,41.49,11.6-16.61,2.05-29.86,3.86-41.86,6.4Z" transform="translate(-146.18 -93.16)"/><circle class="cls-3" cx="519.88" cy="273.57" r="4.8"/><circle class="cls-3" cx="688.35" cy="398.89" r="2.02" transform="translate(-166.3 667.66) rotate(-57.15)"/><path class="cls-1" d="M617.23,650.67c326.36-.55,273.19-44.67,193.95-39.83-78.27,4.78,47.19-12.74-104.37-4.48-35.9,2,12.09,10,.15,11.22-15.11,1.58-103.59,6.53-103.59,6.53s-331.6.2-127.55-5c116.95-3,140.1-12.44,80.83-14-3.44-.09,16-6.08,10.64-5.25-4.05.62,4.26-5.39-32.57,0-4.22.62,8.07,2.46,3.69,2.77-13.94,1-26.69,1.6-26.69,1.6s-4.91,1.3-65.83,4.22c-93.69,4.5-52-2.41-28.85-4.93,50.17-5.45,97.11-20-40.46-5.71-139.31,14.46-139-3.72-65.78-9.23,45.4-5.3-31.55-8.65-14.06-11.06,40.26-5.54-46.32-2-22.34-3.9,42-3.31,53.94-2.44,27.33-6.56-20.84-3.23-114.76,3.85-99.25,7s96.44,5.76,41.94,12.5c-43.7,5.4-74.62,15.16-74.62,15.16S1.09,651.71,617.23,650.67Z" transform="translate(-146.18 -93.16)"/><path d="M148.39,616c0.37,17,58.11,37.84,468.81,31.63,204-3.09,254.76-16.05,254.76-27.55l-1-4c0,200.1-162.18,362.28-362.29,362.28S146.39,816,146.39,616h2Z" transform="translate(-146.18 -93.16)"/><circle class="cls-3" cx="190.64" cy="90.5" r="90.32"/><path class="cls-2" d="M427.13,183.59a90,90,0,0,0-9.67-40.73,13.74,13.74,0,0,1-16-22.35,90.44,90.44,0,0,0-148,27.67,7.13,7.13,0,1,1-4.45,13.2,90.6,90.6,0,0,0,14.13,74.82,8.37,8.37,0,0,1,6.72-.44c3.82,1.2,6.27,4.23,5.47,6.79-0.53,1.68-2.33,2.72-4.59,2.9a90.54,90.54,0,0,0,34.41,22.9c2.1-4.75,10.27-7.48,19.53-6.21,9.55,1.31,16.85,6.4,17.21,11.71A90.43,90.43,0,0,0,427.13,183.59Zm-17-16.21c0.79-.26,1.8.67,2.26,2.07s0.19,2.74-.6,3-1.8-.67-2.26-2.07S409.33,167.64,410.12,167.38ZM310,115.62a7.13,7.13,0,1,1-7.13,7.13A7.13,7.13,0,0,1,310,115.62Zm-8.77,111.76c-1.44.32-2.75-.07-2.93-0.88s0.83-1.73,2.27-2.05,2.75,0.07,2.93.88S302.71,227.05,301.28,227.38Zm5.6-26.18c-8.71,2-17.54-4.33-19.73-14.05S290.24,168,298.95,166s17.54,4.33,19.73,14.05S315.58,199.23,306.87,201.19Zm39-20.44c-1.68,0-3-1.66-3-3.71s1.36-3.71,3-3.71,3,1.66,3,3.71S347.52,180.75,345.83,180.75Zm10-35.87c-4.09,4.09-13.35,1.47-20.68-5.86s-10-16.59-5.86-20.68,13.35-1.47,20.68,5.86S359.93,140.79,355.84,144.88Zm5.94,103.57a1.34,1.34,0,1,1,1-1.74A1.43,1.43,0,0,1,361.78,248.45Zm0.83-25.65c-2.67,0-4.84-3.25-4.84-7.25s2.17-7.25,4.84-7.25,4.84,3.25,4.84,7.25S365.28,222.8,362.61,222.8Z" transform="translate(-146.18 -93.16)"/><circle class="cls-3" cx="396.3" cy="202.09" r="8.22" transform="matrix(0.5, -0.87, 0.87, 0.5, -123.04, 351.09)"/><path class="cls-4" d="M549,498.67" transform="translate(-146.18 -93.16)"/><path class="cls-4" d="M579.84,539.49" transform="translate(-146.18 -93.16)"/><path class="cls-5" d="M666.38,933.89c-40.37-26.39-63.5-43.31-135.21-43.31-6.12,0-39.43-13-45-15-52.49-18.89-137.26,18.82-137.26,49.57,0,0,80.19,46.23,151.68,43.53s133.44-22.26,133.44-22.26" transform="translate(-146.18 -93.16)"/><path class="cls-6" d="M528.51,924.72l-66.17-34.9c-5.84-3.08-10.35-6.1-6-14.41l14.37-27.25c4.38-8.31,12.75-12.59,18.58-9.52l66.17,34.9c5.84,3.08,7,12.4,2.64,20.71L543.77,921.5C539.39,929.81,534.35,927.79,528.51,924.72Z" transform="translate(-146.18 -93.16)"/><path class="cls-6" d="M554.09,889.13l-12.5,24.13c-4.32,7.77-12.58,11.5-18.35,8.29l-4.08-2.27c-5.77-3.21-.4,1.7,3.93-6.07l12.5-24.13c4.32-7.77,2.31-12.72,8.08-9.51l4.08,2.27C553.52,885.06,558.42,881.36,554.09,889.13Z" transform="translate(-146.18 -93.16)"/><path class="cls-6" d="M477.5,848.74l-12.85,23.94c-4,8-2.38,16.88,3.52,19.82l4.18,2.09c5.91,2.95-1.18,1.29,2.79-6.67L488,864c4-8,9.19-9.09,3.28-12l-4.18-2.09C481.18,846.91,481.47,840.78,477.5,848.74Z" transform="translate(-146.18 -93.16)"/><circle class="cls-6" cx="534.89" cy="906.84" r="2.45" transform="translate(-662.94 863.79) rotate(-62.19)"/><circle class="cls-6" cx="539.15" cy="898.77" r="2.45" transform="translate(-653.52 863.25) rotate(-62.19)"/><circle class="cls-6" cx="530.69" cy="914.81" r="2.45" transform="translate(-672.22 864.33) rotate(-62.19)"/><circle class="cls-6" cx="473.33" cy="874.38" r="2.45" transform="translate(-667.06 792.03) rotate(-62.19)"/><circle class="cls-6" cx="477.59" cy="866.31" r="2.45" transform="translate(-657.65 791.49) rotate(-62.19)"/><circle class="cls-6" cx="469.14" cy="882.34" r="2.45" transform="translate(-676.35 792.56) rotate(-62.19)"/><rect class="cls-6" x="475.97" y="839.36" width="93.04" height="28.31" transform="translate(360.79 -240.27) rotate(30.58)"/><path class="cls-6" d="M576.71,867.09l-10.24,19c-3.58,6.1-11.17,8.36-16.86,5l-4-2.37c-5.69-3.34-.26,1.4,3.32-4.7l10.24-19c3.58-6.1,1.34-10.51,7-7.16l4,2.37C575.89,863.58,580.29,861,576.71,867.09Z" transform="translate(-146.18 -93.16)"/><rect class="cls-6" x="508.88" y="850.83" width="15.13" height="36.21" rx="7.57" ry="7.57" transform="translate(367.79 -235.05) rotate(30.58)"/><path class="cls-6" d="M485.4,815.61l-11.07,18.08c-3.39,6-1.46,13.64,4.3,16.87l4.08,2.29c5.76,3.23-1.06.91,2.33-5.14l11.07-18.08c3.39-6,8.3-6.28,2.54-9.51l-4.08-2.29C488.82,814.59,488.79,809.56,485.4,815.61Z" transform="translate(-146.18 -93.16)"/><circle class="cls-6" cx="481.63" cy="838.06" r="2.45" transform="translate(-631.07 733.11) rotate(-59.42)"/><circle class="cls-6" cx="486.27" cy="830.2" r="2.45" transform="translate(-622.02 733.25) rotate(-59.42)"/><circle class="cls-6" cx="490.92" cy="822.34" r="2.45" transform="translate(-612.98 733.39) rotate(-59.42)"/><circle class="cls-6" cx="558.25" cy="883.34" r="2.45" transform="translate(-632.42 821.31) rotate(-59.42)"/><circle class="cls-6" cx="562.89" cy="875.48" r="2.45" transform="translate(-623.37 821.45) rotate(-59.42)"/><circle class="cls-6" cx="567.54" cy="867.62" r="2.45" transform="translate(-614.33 821.59) rotate(-59.42)"/><circle class="cls-7" cx="518.05" cy="866.22" r="2.45" transform="translate(-637.43 778.29) rotate(-59.42)"/><rect class="cls-7" x="514.19" y="866.03" width="3.05" height="8.3" rx="1.52" ry="1.52" transform="translate(368.33 -234.5) rotate(30.58)"/><circle class="cls-8" cx="411.54" cy="833.88" r="1.61"/><circle class="cls-8" cx="275.28" cy="831.48" r="2.4"/><circle class="cls-8" cx="433.28" cy="841.48" r="2.4"/><circle class="cls-8" cx="441.54" cy="814.88" r="1.61"/><path class="cls-2" d="M499.4,938.64s17.33-19.22,22.36-19.12,32-2.43,43.45,1.37S499.4,938.64,499.4,938.64Z" transform="translate(-146.18 -93.16)"/><circle class="cls-8" cx="301.54" cy="804.88" r="1.61"/><circle class="cls-9" cx="307.65" cy="723.72" r="3.05"/><circle class="cls-9" cx="335.4" cy="632.47" r="4.8"/><circle class="cls-9" cx="312.21" cy="717.51" r="1.51"/><circle class="cls-9" cx="308.86" cy="715.3" r="0.76"/><circle class="cls-9" cx="315.05" cy="737.12" r="4.64"/><circle class="cls-9" cx="317.86" cy="704.55" r="4.64"/><circle class="cls-9" cx="308.86" cy="689.06" r="7.32"/><circle class="cls-9" cx="317.86" cy="673.3" r="0.76"/><circle class="cls-9" cx="443.39" cy="693.51" r="4.1" transform="translate(-193.32 -60.66) rotate(-3.99)"/><circle class="cls-9" cx="295.91" cy="629.91" r="2.49"/><circle class="cls-9" cx="328.62" cy="656.35" r="3.07"/><circle class="cls-9" cx="318.38" cy="627.39" r="1.01"/><circle class="cls-9" cx="316.01" cy="648.26" r="1.61"/><circle class="cls-9" cx="290.41" cy="650.23" r="7.32"/><circle class="cls-9" cx="311.86" cy="581.3" r="0.76"/><circle class="cls-9" cx="323.01" cy="589.26" r="1.61"/><path class="cls-10" d="M170.89,747.44c1.77-.54,8.35.53,10,1.25,175.56,76,263.68-117.92,396.16-29.63C690.69,794.78,709,721.86,837,744.73c0.55,0.1,2.67.19,9.38,2.81" transform="translate(-146.18 -93.16)"/></svg>