<svg id="Layer_1" data-name="Layer 1" xmlns="http://www.w3.org/2000/svg" xmlns:xlink="http://www.w3.org/1999/xlink" viewBox="0 0 730.54 885.97"><defs><style>.cls-1,.cls-12,.cls-14,.cls-15,.cls-19,.cls-20,.cls-3,.cls-4,.cls-8{fill:none;}.cls-1,.cls-10,.cls-11,.cls-12,.cls-13,.cls-14,.cls-15,.cls-16,.cls-17,.cls-18,.cls-19,.cls-2,.cls-20,.cls-3,.cls-4,.cls-5,.cls-8{stroke-miterlimit:10;}.cls-1,.cls-14,.cls-15,.cls-19,.cls-20,.cls-3,.cls-4{stroke-width:5px;}.cls-1{stroke:url(#linear-gradient);}.cls-2{stroke:url(#linear-gradient-2);}.cls-3{stroke:url(#linear-gradient-3);}.cls-4{stroke:url(#linear-gradient-4);}.cls-5{fill:url(#linear-gradient-5);stroke:url(#linear-gradient-6);}.cls-6{fill:url(#linear-gradient-7);}.cls-7{fill:#fff;}.cls-8{stroke:#fff;}.cls-10,.cls-12,.cls-8{stroke-width:3px;}.cls-9{fill:url(#linear-gradient-8);}.cls-10,.cls-11{fill:#1e0707;}.cls-10,.cls-11,.cls-12{stroke:#ffff97;}.cls-11{stroke-width:2px;}.cls-13{stroke:url(#linear-gradient-9);}.cls-14{stroke:url(#linear-gradient-10);}.cls-15{stroke:url(#linear-gradient-11);}.cls-16{stroke:url(#linear-gradient-12);}.cls-17{stroke:url(#linear-gradient-13);}.cls-18{stroke:url(#linear-gradient-14);}.cls-19{stroke:url(#linear-gradient-15);}.cls-20{stroke:url(#linear-gradient-16);}</style><linearGradient id="linear-gradient" x1="708.67" y1="607.89" x2="813.33" y2="607.89" gradientUnits="userSpaceOnUse"><stop offset="0"/><stop offset="0.37" stop-color="#140606"/><stop offset="1" stop-color="#351111"/></linearGradient><linearGradient id="linear-gradient-2" x1="188.1" y1="584.89" x2="243.58" y2="584.89" xlink:href="#linear-gradient"/><linearGradient id="linear-gradient-3" x1="143.1" y1="608.86" x2="873.65" y2="608.86" xlink:href="#linear-gradient"/><linearGradient id="linear-gradient-4" x1="534.36" y1="598.72" x2="567.67" y2="598.72" xlink:href="#linear-gradient"/><linearGradient id="linear-gradient-5" x1="509.63" y1="605.03" x2="497.12" y2="978.45" xlink:href="#linear-gradient"/><linearGradient id="linear-gradient-6" x1="145.89" y1="796.56" x2="872.46" y2="796.56" xlink:href="#linear-gradient"/><linearGradient id="linear-gradient-7" x1="115.84" y1="-11.03" x2="211.66" y2="114" xlink:href="#linear-gradient"/><linearGradient id="linear-gradient-8" x1="515.4" y1="821.53" x2="509.95" y2="984.24" gradientUnits="userSpaceOnUse"><stop offset="0" stop-color="#ffff97"/><stop offset="0.4" stop-color="#afa062"/><stop offset="1" stop-color="#351111"/></linearGradient><linearGradient id="linear-gradient-9" x1="262.36" y1="518.98" x2="545.05" y2="518.98" xlink:href="#linear-gradient"/><linearGradient id="linear-gradient-10" x1="711.81" y1="601.35" x2="711.81" y2="601.35" xlink:href="#linear-gradient"/><linearGradient id="linear-gradient-11" x1="716.18" y1="605.84" x2="716.18" y2="605.84" xlink:href="#linear-gradient"/><linearGradient id="linear-gradient-12" x1="507.33" y1="433" x2="586.26" y2="433" xlink:href="#linear-gradient"/><linearGradient id="linear-gradient-13" x1="241.21" y1="568.73" x2="511.13" y2="568.73" xlink:href="#linear-gradient"/><linearGradient id="linear-gradient-14" x1="526.56" y1="477.11" x2="708.91" y2="477.11" xlink:href="#linear-gradient"/><linearGradient id="linear-gradient-15" x1="212.8" y1="516.64" x2="212.8" y2="516.64" xlink:href="#linear-gradient"/><linearGradient id="linear-gradient-16" x1="630.23" y1="645.67" x2="630.23" y2="645.67" xlink:href="#linear-gradient"/></defs><title>lukenis-monstr-home-image</title><path class="cls-1" d="M813.18,610.84c-78.27,4.78,47.19-12.74-104.37-4.48" transform="translate(-143.1 -93.16)"/><path class="cls-2" d="M189,575.88c15,3.11,81.45,4.37,41.49,11.6-16.61,2.05-29.86,3.86-41.86,6.4Z" transform="translate(-143.1 -93.16)"/><path class="cls-3" d="M306.09,570.45c-1-1.58-5.5-2.86-13.36-3.43-21-1.53-115.76,3.85-100.25,7s86.44,5.76,31.94,12.5c-43.7,5.4-54.62,10.16-54.62,10.16s-181.09,58.9,447.43,54c326.35-2.53,273.19-44.67,193.95-39.83-78.27,4.78,47.19-12.74-104.37-4.48" transform="translate(-143.1 -93.16)"/><path class="cls-4" d="M567.3,599.83c-3.74.57,3-4.5-24.8-1.06-2.34.29-4.92,0.64-7.78,1.05" transform="translate(-143.1 -93.16)"/><path class="cls-5" d="M148.39,616.49c0.37,17,58.11,37.59,468.81,31.38,204-3.09,254.76-16.18,254.76-27.68l-1-3.06c0,200.1-162.18,361.5-362.29,361.5S146.39,816.49,146.39,616.49h2Z" transform="translate(-143.1 -93.16)"/><circle class="cls-6" cx="193.6" cy="90.43" r="90.43"/><circle class="cls-7" cx="166.94" cy="39.59" r="7.13"/><ellipse class="cls-7" cx="352.56" cy="131.61" rx="10.48" ry="18.77" transform="translate(-132.9 194.69) rotate(-45)"/><circle class="cls-7" cx="266.69" cy="38.3" r="13.74"/><ellipse class="cls-7" cx="282.91" cy="183.59" rx="16.16" ry="18.04" transform="translate(-176.53 -26.51) rotate(-12.69)"/><ellipse class="cls-7" cx="229.51" cy="122.39" rx="4.84" ry="7.25"/><ellipse class="cls-7" cx="323.28" cy="272.54" rx="10.48" ry="18.77" transform="translate(-133.67 462.72) rotate(-82.21)"/><ellipse class="cls-7" cx="192.73" cy="103.88" rx="3.05" ry="3.71"/><path class="cls-8" d="M549,498.67" transform="translate(-143.1 -93.16)"/><path class="cls-8" d="M579.84,539.49" transform="translate(-143.1 -93.16)"/><path class="cls-9" d="M531.17,890.58c-6.12,0-39.43-13-45-15-52.49-18.89-137.26,18.82-137.26,49.57,0,0,80.6,41.57,151.68,41.53,71.54,0,133.44-20.26,133.44-20.26s26.63-8.48,32.33-12.56C705.62,905.86,602.88,890.58,531.17,890.58ZM421.46,927a2.4,2.4,0,1,1,2.4-2.4A2.4,2.4,0,0,1,421.46,927Zm26.26-27.39a1.61,1.61,0,1,1,1.61-1.61A1.61,1.61,0,0,1,447.72,899.65Zm110,29a1.61,1.61,0,1,1,1.61-1.61A1.61,1.61,0,0,1,557.72,928.65ZM579.46,937a2.4,2.4,0,1,1,2.4-2.4A2.4,2.4,0,0,1,579.46,937Zm8.26-27.39a1.61,1.61,0,1,1,1.61-1.61A1.61,1.61,0,0,1,587.72,909.65Z" transform="translate(-143.1 -93.16)"/><path class="cls-10" d="M528.51,924.72l-66.17-34.9c-5.84-3.08-10.35-6.1-6-14.41l14.37-27.25c4.38-8.31,12.75-12.59,18.58-9.52l66.17,34.9c5.84,3.08,7,12.4,2.64,20.71L543.77,921.5C539.39,929.81,534.35,927.79,528.51,924.72Z" transform="translate(-143.1 -93.16)"/><path class="cls-10" d="M554.09,889.13l-12.5,24.13c-4.32,7.77-12.58,11.5-18.35,8.29l-4.08-2.27c-5.77-3.21-.4,1.7,3.93-6.07l12.5-24.13c4.32-7.77,2.31-12.72,8.08-9.51l4.08,2.27C553.52,885.06,558.42,881.36,554.09,889.13Z" transform="translate(-143.1 -93.16)"/><path class="cls-10" d="M477.5,848.74l-12.85,23.94c-4,8-2.38,16.88,3.52,19.82l4.18,2.09c5.91,2.95-1.18,1.29,2.79-6.67L488,864c4-8,9.19-9.09,3.28-12l-4.18-2.09C481.18,846.91,481.47,840.78,477.5,848.74Z" transform="translate(-143.1 -93.16)"/><circle class="cls-10" cx="534.89" cy="906.84" r="2.45" transform="translate(-659.86 863.79) rotate(-62.19)"/><circle class="cls-10" cx="539.15" cy="898.77" r="2.45" transform="translate(-650.45 863.25) rotate(-62.19)"/><circle class="cls-10" cx="530.69" cy="914.81" r="2.45" transform="translate(-669.14 864.33) rotate(-62.19)"/><circle class="cls-10" cx="473.33" cy="874.38" r="2.45" transform="translate(-663.99 792.03) rotate(-62.19)"/><circle class="cls-10" cx="477.59" cy="866.31" r="2.45" transform="translate(-654.58 791.49) rotate(-62.19)"/><circle class="cls-10" cx="469.14" cy="882.34" r="2.45" transform="translate(-673.27 792.56) rotate(-62.19)"/><rect class="cls-10" x="475.97" y="839.36" width="93.04" height="28.31" transform="translate(363.87 -240.27) rotate(30.58)"/><path class="cls-10" d="M576.71,867.09l-10.24,19c-3.58,6.1-11.17,8.36-16.86,5l-4-2.37c-5.69-3.34-.26,1.4,3.32-4.7l10.24-19c3.58-6.1,1.34-10.51,7-7.16l4,2.37C575.89,863.58,580.29,861,576.71,867.09Z" transform="translate(-143.1 -93.16)"/><rect class="cls-10" x="508.88" y="850.83" width="15.13" height="36.21" rx="7.57" ry="7.57" transform="translate(370.87 -235.05) rotate(30.58)"/><path class="cls-10" d="M485.4,815.61l-11.07,18.08c-3.39,6-1.46,13.64,4.3,16.87l4.08,2.29c5.76,3.23-1.06.91,2.33-5.14l11.07-18.08c3.39-6,8.3-6.28,2.54-9.51l-4.08-2.29C488.82,814.59,488.79,809.56,485.4,815.61Z" transform="translate(-143.1 -93.16)"/><circle class="cls-10" cx="481.63" cy="838.06" r="2.45" transform="translate(-627.99 733.11) rotate(-59.42)"/><circle class="cls-10" cx="486.27" cy="830.2" r="2.45" transform="translate(-618.95 733.25) rotate(-59.42)"/><circle class="cls-10" cx="490.92" cy="822.34" r="2.45" transform="translate(-609.9 733.39) rotate(-59.42)"/><circle class="cls-10" cx="558.25" cy="883.34" r="2.45" transform="translate(-629.34 821.31) rotate(-59.42)"/><circle class="cls-10" cx="562.89" cy="875.48" r="2.45" transform="translate(-620.3 821.45) rotate(-59.42)"/><circle class="cls-10" cx="567.54" cy="867.62" r="2.45" transform="translate(-611.25 821.59) rotate(-59.42)"/><circle class="cls-11" cx="518.05" cy="866.22" r="2.45" transform="translate(-634.35 778.29) rotate(-59.42)"/><rect class="cls-11" x="514.19" y="866.03" width="3.05" height="8.3" rx="1.52" ry="1.52" transform="translate(371.4 -234.5) rotate(30.58)"/><circle class="cls-12" cx="310.72" cy="723.72" r="3.05"/><circle class="cls-12" cx="338.48" cy="632.47" r="4.8"/><circle class="cls-12" cx="315.29" cy="717.51" r="1.51"/><circle class="cls-12" cx="311.94" cy="715.3" r="0.76"/><circle class="cls-12" cx="318.13" cy="737.12" r="4.64"/><circle class="cls-12" cx="320.93" cy="704.55" r="4.64"/><circle class="cls-12" cx="311.94" cy="689.06" r="7.32"/><circle class="cls-12" cx="320.94" cy="673.3" r="0.76"/><circle class="cls-12" cx="443.39" cy="693.51" r="4.1" transform="translate(-190.25 -60.66) rotate(-3.99)"/><circle class="cls-12" cx="298.98" cy="629.91" r="2.49"/><circle class="cls-12" cx="331.69" cy="656.35" r="3.07"/><circle class="cls-12" cx="321.46" cy="616.39" r="1.01"/><circle class="cls-12" cx="319.09" cy="648.26" r="1.61"/><circle class="cls-12" cx="293.48" cy="650.23" r="7.32"/><path class="cls-12" d="M170.89,747.44c1.77-.54,8.35.53,10,1.25,175.56,76,263.68-117.92,396.16-29.63C690.69,794.78,709,721.86,837,744.73c0.55,0.1,2.67.19,9.38,2.81" transform="translate(-143.1 -93.16)"/><path class="cls-13" d="M543.47,600.19s-17.2-24.64-17.76-36.57c8.23-26.56,8-53.73-.58-60.45-8.23,26.56-21.81,42.48-30.36,35.76l-0.13-.51c12.07-39,10.48-79.44-3.56-90.47-12.07,39-33.2,61.53-47.24,50.5l0.18-.73c-2.07-43.89-16.25-78.83-31.7-78.1,2.07,43.89-8.77,80-24.23,80.73l0.06,0.29c-11-41.18-31.48-67.79-45.78-59.49,11,41.18,8.35,81.22-5.95,89.52l-0.15-.46c-12.46-23.74-28.41-35.77-35.66-26.9,12.46,23.74,21.45,52.26,14.21,61.13,0,0-3.56,4-13.08,8,0,0-42.22,7.32-38.67,8.93,1.27,0.57,34.61-2.88,41.54-3.23,14.12-.71,9.47-3.3,9.47-3.3l9.87-10.27c59.77-70,145.84-58.69,192.78,35.58,0,0,12.1,14-101.73,17.32-4.68.14,40.14,2.54,83.79-1.37C520.75,614.16,550.63,607.76,543.47,600.19Z" transform="translate(-143.1 -93.16)"/><path class="cls-14" d="M711.81,601.35" transform="translate(-143.1 -93.16)"/><path class="cls-15" d="M716.18,605.84" transform="translate(-143.1 -93.16)"/><path class="cls-16" d="M585.71,338.27c-6.67.31-71.79,41.75-2.87,196.22-15.92.75-29.69-17.51-30.79-40.81-3-15.19-19.2-24.79-36.33-21.46-3-15.19,7.09-28.61,24.21-31.94l0.11-.1c-0.28-15.47-14.62-27.74-32.06-27.43,6.33-23.44,15.19-32,28.84-27.7l0.34-.22c7.55-13.51,1.34-31.33-13.89-39.84,7.55-13.51,26-17.55,41.21-9l-0.11-.22C575.92,334.61,585.46,335.75,585.71,338.27Z" transform="translate(-143.1 -93.16)"/><path class="cls-17" d="M363,605.84c-29.86,0-38.31,10.91,55.44,7.75,83.93-2.8,92.07-13.37,92.07-13.37-41.93-83-124.85-109.7-192-25.34,7.48,4-14.88,6.63-14.74,6.67-72.86,5-105.28,17.65,37.78,15.23C406.09,596.87,447.26,603.42,363,605.84Z" transform="translate(-143.1 -93.16)"/><path class="cls-18" d="M708.31,608.43l-0.66-3.15C694.37,513.6,644,536.5,614,460.58L610.51,439c-0.71-15-2.74-29.85-4.48-66.81h0.08c24.58,35.88,41.92,45.39,71.51,40.5,9.21-2,14.39-7.55,13-16.9a2,2,0,0,1-.72-3.32c-2-7.23-7.53-16.37-17.33-27.49a4.79,4.79,0,1,1-6.49-7q-3.43-3.53-7.4-7.3c-14.84-21.74-47.32-25.29-72.63-8l-1.29,1.26c-41.35,33.27-32.52,96.16,2.81,189.87,1.68,35.61-15.22,65.9-25.92,66.41l-0.75.37s39.87,5.28-23.92,14.25c-46.49,7.25,85.16,7.67,85.16,7.67S711.77,623.94,708.31,608.43ZM683.26,391.86a2,2,0,1,1-1.93,2.12A2,2,0,0,1,683.26,391.86Zm-29.54-34.93a4.8,4.8,0,1,1-4.8,4.8A4.8,4.8,0,0,1,653.72,356.93Z" transform="translate(-143.1 -93.16)"/><path class="cls-19" d="M212.8,516.64" transform="translate(-143.1 -93.16)"/><path class="cls-20" d="M630.23,645.67" transform="translate(-143.1 -93.16)"/><circle class="cls-7" cx="510.62" cy="268.8" r="4.58"/><circle class="cls-7" cx="525.78" cy="268.57" r="4.58"/><circle class="cls-7" cx="540.25" cy="300.72" r="1.72"/><circle class="cls-7" cx="548.01" cy="300.72" r="1.72"/></svg>