<svg id="Layer_1" data-name="Layer 1" xmlns="http://www.w3.org/2000/svg" viewBox="0 0 70.92 78.62"><defs><style>.cls-1,.cls-3{fill:#1592e6;}.cls-2,.cls-5{fill:#72c1ed;}.cls-2,.cls-3{stroke:#fff;stroke-miterlimit:10;}.cls-4{fill:#fff;}</style></defs><title>meemo</title><path class="cls-1" d="M63.14,18.8c-1.68,3-.92,6.67,1.71,8.13s7.93,3.17,11.91-4c1.68-3,1.12-7.11-1.71-8.13-3.38-1.22-4.08,1.71-6.52,2.51S64,17.29,63.14,18.8Z" transform="translate(-15.52 -14.01)"/><path class="cls-2" d="M65.19,19.35c-1.11,2,.35,2,2.23,4.06,1.57,1.7,5.44,4.16,8.09-.6,1.11-2,.51-4.84-1.64-5.67-2.57-1-3,1-4.74,1.43S65.75,18.35,65.19,19.35Z" transform="translate(-15.52 -14.01)"/><path class="cls-1" d="M37.14,18.8c1.68,3,.92,6.67-1.71,8.13s-7.93,3.17-11.91-4c-1.68-3-1.12-7.11,1.71-8.13,3.38-1.22,4.08,1.71,6.52,2.51S36.3,17.29,37.14,18.8Z" transform="translate(-15.52 -14.01)"/><path class="cls-2" d="M35.09,19.35c1.11,2-.35,2-2.23,4.06-1.57,1.7-5.44,4.16-8.09-.6-1.11-2-.51-4.84,1.64-5.67,2.57-1,3,1,4.74,1.43S34.53,18.35,35.09,19.35Z" transform="translate(-15.52 -14.01)"/><path class="cls-3" d="M57.39,14.51a20.27,20.27,0,0,0-6.79,1.17,20.27,20.27,0,0,0-6.79-1.17c-11.56,0-20.92,9.68-20.92,21.62s9.37,21.62,20.92,21.62a20.27,20.27,0,0,0,6.79-1.17,20.27,20.27,0,0,0,6.79,1.17c11.56,0,20.92-9.68,20.92-21.62S69,14.51,57.39,14.51Z" transform="translate(-15.52 -14.01)"/><ellipse class="cls-1" cx="35.46" cy="49.99" rx="35.46" ry="11.87"/><path class="cls-4" d="M43.48,31.65c0,1.33-1.32.29-2.94,0.29s-2.94,1-2.94-.29a2.71,2.71,0,0,1,2.94-2.41A2.71,2.71,0,0,1,43.48,31.65Z" transform="translate(-15.52 -14.01)"/><path class="cls-4" d="M63.39,31.65c0,1.33-1.32.29-2.94,0.29s-2.94,1-2.94-.29A3,3,0,0,1,63.39,31.65Z" transform="translate(-15.52 -14.01)"/><ellipse class="cls-5" cx="35.11" cy="34.72" rx="10.23" ry="11.63"/><path class="cls-4" d="M60.39,48.25s0.13,0.45.32,1.25A7.66,7.66,0,0,1,60.81,51a4.39,4.39,0,0,1-.1,1l-0.11.52c-0.06.17-.14,0.35-0.21,0.53a5.38,5.38,0,0,1-.6,1.08,5.53,5.53,0,0,1-.94.93,7,7,0,0,1-2.48,1.25,13.61,13.61,0,0,1-2.79.55c-1,.1-1.88.12-2.86,0.14a26.23,26.23,0,0,1-2.85-.19,13.39,13.39,0,0,1-2.77-.63,8.27,8.27,0,0,1-2.44-1.24A5.55,5.55,0,0,1,41,53a5,5,0,0,1-.53-2,6,6,0,0,1,.11-1.53,7.52,7.52,0,0,1,.26-0.93l0.1-.32v0.34c0,0.22,0,.54,0,0.94a7.36,7.36,0,0,0,.25,1.38A5,5,0,0,0,42,52.44a5.16,5.16,0,0,0,1.5,1.25,8.68,8.68,0,0,0,2.12.8,16.37,16.37,0,0,0,2.48.4,25.12,25.12,0,0,0,2.67.11c0.87,0,1.8,0,2.66-.07a16.05,16.05,0,0,0,2.49-.32A6.72,6.72,0,0,0,58,53.84a4,4,0,0,0,1.39-1.32l0.24-.39,0.17-.41a3.63,3.63,0,0,0,.27-0.8,10.62,10.62,0,0,0,.25-1.39Z" transform="translate(-15.52 -14.01)"/><path class="cls-3" d="M46.62,46.54a3.92,3.92,0,0,0,2,3.3c1,0.46,1.25,1.42,1.95,1.42h0.1c0.69,0,.9-1,1.95-1.42a3.92,3.92,0,0,0,2-3.3" transform="translate(-15.52 -14.01)"/><path class="cls-3" d="M50.59,44.36c-0.82,0-1.77-.81-2.22-0.31-0.68.75-1.75,1.74-1.75,2.49s0.72,1.43,1.8,1.82a1.72,1.72,0,0,1-.11-0.62,1.06,1.06,0,0,1,.77-1.2,1.06,1.06,0,0,1,.77,1.2,1.55,1.55,0,0,1-.27.9,7,7,0,0,0,2,0,1.55,1.55,0,0,1-.27-0.9,1.06,1.06,0,0,1,.77-1.2,1.06,1.06,0,0,1,.77,1.2,1.72,1.72,0,0,1-.11.62c1.08-.39,1.8-1.06,1.8-1.82a4.09,4.09,0,0,0-1.75-2.49C52.25,43.68,51.42,44.36,50.59,44.36Z" transform="translate(-15.52 -14.01)"/><path class="cls-5" d="M21.85,77.69c0.8-1.2,1.45-2.2,2-3.18L25.22,75,24.1,76.9l0.05,0c1.19-1,2.6-1.75,4-1.33,1.15,0.35,1.51,1.59,1.19,3.13h0a7.8,7.8,0,0,1,1.74-1.34A3,3,0,0,1,33.39,77c1.13,0.26,2.43,1.69.91,6.06l-2.57,7.42-2-.4L32.49,83c0.92-2.4.85-4-.45-4.29-0.92-.22-2.06.54-2.87,1.55a6.19,6.19,0,0,0-.67,1.08L24.87,88.9l-1.94-.53,3.78-7.27c1-1.93,1.11-3.51-.1-3.88-1-.31-2.37.53-3.3,1.52a5.51,5.51,0,0,0-.79,1l-4.45,7.12-1.91-.66Z" transform="translate(-15.52 -14.01)"/><path class="cls-5" d="M37.73,85.25c-0.79,3.14.57,4.7,2.54,4.92a6,6,0,0,0,3.11-.38c0,0.68.06,1,.1,1.71a7.71,7.71,0,0,1-3.85.44c-3.45-.39-4.73-3.35-3.57-7.18s3.59-6.57,6.11-6.27c2.82,0.33,3.1,4.06,2.8,6.44-0.06.48-.15,0.85-0.2,1.09C41.94,85.83,40.53,85.67,37.73,85.25Zm5.61-1c0.26-1.49.19-3.84-1.64-4.06C40,80,38.76,82,38.19,83.59,40.24,83.9,41.27,84,43.34,84.21Z" transform="translate(-15.52 -14.01)"/><path class="cls-5" d="M48.11,86.22c-0.17,3.2,1.46,4.58,3.45,4.58a5.7,5.7,0,0,0,3-.71c0.17,0.67.26,1,.43,1.68a7.31,7.31,0,0,1-3.7.86c-3.47,0-5.28-2.79-4.89-6.71S48.62,79,51.15,79c2.84,0,3.85,3.67,4,6.07,0,0.48,0,.86,0,1.1C52.35,86.32,50.94,86.32,48.11,86.22Zm5.31-1.65c0-1.51-.56-3.82-2.41-3.83-1.66,0-2.52,2.15-2.77,3.79C50.31,84.6,51.35,84.61,53.42,84.57Z" transform="translate(-15.52 -14.01)"/><path class="cls-5" d="M57.13,82.69c-0.15-1.34-.29-2.44-0.46-3.51l1.39-.1,0.37,2.08h0.06c0.33-1.27,1-2.48,2.38-2.64,1.18-.14,2.32.79,3.11,2.24h0a5.08,5.08,0,0,1,.55-1.81,2.18,2.18,0,0,1,1.65-1.22c1.14-.21,3.24.52,5,4.85l2.91,7.35-2,.41-2.55-7.12c-0.87-2.42-2-3.74-3.33-3.51-0.93.16-1.37,1.25-1.36,2.42A5.26,5.26,0,0,0,65,83.32l2.11,7.89-2,.28-1.79-7.68c-0.47-2-1.45-3.43-2.7-3.3-1,.11-1.58,1.35-1.68,2.55a4.36,4.36,0,0,0,0,1.16L60.17,92l-2,.14Z" transform="translate(-15.52 -14.01)"/><path class="cls-5" d="M83.16,80.24c2.89,4.31,1.39,7.18-1.25,8-3,.89-6.35-1-8.08-4.93-1.83-4.14-1-7,1.29-7.71S80.77,76.67,83.16,80.24Zm-7.57,2.51c1.3,2.68,3.62,4.36,5.5,3.79s2-2.95.34-5.61c-1.25-2-3.56-4.27-5.44-3.71S74.46,80.42,75.59,82.75Z" transform="translate(-15.52 -14.01)"/></svg>