<svg id="Layer_1" data-name="Layer 1" xmlns="http://www.w3.org/2000/svg" viewBox="0 0 111.58 107.06"><defs><style>.cls-1{fill:#fff;stroke:#231f20;}.cls-1,.cls-2{stroke-miterlimit:10;}.cls-2{fill:none;stroke:#d42027;stroke-width:2px;}</style></defs><title>the-other-77000</title><polyline class="cls-1" points="97.04 106.68 97.04 93.11 109.14 93.11 109.14 106.68"/><polyline class="cls-1" points="1.42 106.68 1.42 93.11 13.51 93.11 13.51 106.68"/><polyline class="cls-1" points="13.51 106.57 13.51 74.73 28.61 74.73 28.61 106.68"/><polyline class="cls-1" points="6 106.68 6 86.53 18.1 86.53 18.1 106.68"/><polyline class="cls-1" points="24.36 106.68 24.36 60.53 39.45 60.53 39.45 106.66"/><polyline class="cls-1" points="93 106.4 93 90.21 103.83 90.21 103.83 106.68"/><polyline class="cls-1" points="81.03 105.28 81.03 72.36 97.17 72.36 97.17 106.68"/><polyline class="cls-1" points="66.87 106.02 66.87 41.53 87.74 41.53 87.74 106.68"/><polyline class="cls-1" points="35.2 106.12 35.2 33.13 56.07 33.13 56.07 106.68"/><polyline class="cls-1" points="44.74 106.68 44.74 50.24 74.9 50.24 74.9 106.27"/><polyline class="cls-1" points="44.45 106.34 44.45 22.09 72.57 22.09 72.57 80.13"/><polyline class="cls-1" points="50.19 39.13 50.19 0.5 66.83 0.5 66.83 39.13"/><line class="cls-1" x1="56.4" y1="3.07" x2="56.4" y2="13.37"/><line class="cls-1" x1="58.51" y1="3.07" x2="58.51" y2="18.92"/><line class="cls-1" x1="60.62" y1="3.07" x2="60.62" y2="13.37"/><path class="cls-1" d="M206.12,114.23a4.33,4.33,0,1,1,8.66,0" transform="translate(-141 -78.14)"/><polyline class="cls-1" points="65.11 45.09 65.11 36.09 73.78 36.09 73.78 45.09"/><path class="cls-1" d="M209.13,110.1s1.52-2.84,2.64,0" transform="translate(-141 -78.14)"/><path class="cls-1" d="M209.4,105.63l0.36-.61s0-.43.46-0.2,0.42,0.13.24-.23,0.22-.94.3-0.71a0.9,0.9,0,0,1,.2.74,0.48,0.48,0,0,0,0,.63c0.16,0.13.46-.18,0.41,0.18s0.15,0.74-.13.81a1,1,0,0,0-.43.58,2.25,2.25,0,0,1,.2.79v1a0.83,0.83,0,0,0-.06.43,0.7,0.7,0,0,0-.93.1c-0.46.49-.1,0-0.1,0a2.12,2.12,0,0,1,.05-0.66c0.08-.1.53-0.18,0.41-0.43a3.08,3.08,0,0,0-.41-0.56,0.76,0.76,0,0,1,.08-0.88,0.69,0.69,0,0,0,.36-0.51l0-.43s0-.53-0.23-0.43S209.38,106,209.4,105.63Z" transform="translate(-141 -78.14)"/><polyline class="cls-1" points="63.76 60.65 63.76 39.27 75.13 39.27 75.13 60.65"/><polyline class="cls-1" points="62.27 106.68 62.27 48.88 76.48 48.88 76.48 106.37"/><path class="cls-2" d="M222.91,174.71l-0.38-1.27s-2.89-2.39-3.41-3.7-7.83-6.5-7.83-6.5l-2.86-1.39a12.34,12.34,0,0,0-1.36-.7c-0.37,0-1.17-1-1.68-1.12a8.57,8.57,0,0,1-1.54-.61L203,157.73l-2.2-4.3a1.72,1.72,0,0,1,0-1,7.52,7.52,0,0,1-.51-2,12,12,0,0,0-.23-2.34,9.07,9.07,0,0,0-.82-2.62,1.59,1.59,0,0,1,0-1.36,2.62,2.62,0,0,0-.31-1.54,1.49,1.49,0,0,1-.35-0.51,1.29,1.29,0,0,0,.35-1c-0.07-.56-0.3-2.1-0.3-2.1a1.56,1.56,0,0,0-.28-1.17,6.42,6.42,0,0,1-.61-0.94,3.91,3.91,0,0,0-.42,1.26c0,0.33-.84.33-1,0.33a2.92,2.92,0,0,0-.37,1.82,7,7,0,0,1-.28,2.57,2.93,2.93,0,0,0-.42,1.45,7.14,7.14,0,0,1,0,1.73c-0.14.37,0.09,2.34,0,2.71a3.2,3.2,0,0,1-.42,1.54c-0.42.56-.19,1.87-0.42,1.92s0,0.84-.28,1.17a6.28,6.28,0,0,1-1.36,1.59c-0.42.19-.7,0.23-1.08,0.42s-4.68,2.24-5.38,2.81c0,0-3.8,1.88-4.22,2.54a13.58,13.58,0,0,0-6.18,2.45c-3.41,2.3-9,3.77-11.28,4.45s-20.84,16.44-20.84,16.44l15.22,0.05,85.91,0c-1.3-.34-11.06-2.74-14.92-6.89C227.37,174.55,222.91,174.71,222.91,174.71Z" transform="translate(-141 -78.14)"/></svg>